<svg xmlns="http://www.w3.org/2000/svg" width="1200" height="820" viewBox="0 0 1200 820" fill="none"><defs><linearGradient id="g" x1="190" y1="100" x2="980" y2="700"><stop stop-color="#0B9444"/><stop offset=".55" stop-color="#00A884"/><stop offset="1" stop-color="#0078D7"/></linearGradient><filter id="s" x="-20%" y="-20%" width="140%" height="140%"><feDropShadow dx="0" dy="20" stdDeviation="28" flood-opacity=".16"/></filter></defs><rect width="1200" height="820" rx="58" fill="#F3F5F7"/><circle cx="1010" cy="125" r="180" fill="#DDF7EC"/><g filter="url(#s)"><rect x="210" y="90" width="490" height="640" rx="26" fill="white"/><rect x="254" y="136" width="402" height="66" rx="16" fill="#EAF8F0"/><text x="282" y="178" font-family="Segoe UI,Arial" font-size="28" font-weight="800" fill="#0B9444">HÓA ĐƠN ĐIỆN TỬ</text><g font-family="Segoe UI,Arial" fill="#17212B"><text x="254" y="250" font-size="15" fill="#65717E">Nhà cung cấp</text><text x="254" y="281" font-size="22" font-weight="700">CÔNG TY ABC</text><text x="254" y="327" font-size="15" fill="#65717E">MST</text><text x="254" y="356" font-size="20" font-weight="700">0312 345 678</text><text x="254" y="402" font-size="15" fill="#65717E">Số hóa đơn</text><text x="254" y="431" font-size="20" font-weight="700">0000128</text></g><rect x="254" y="474" width="402" height="1" fill="#DCE3E8"/><g font-family="Segoe UI,Arial" font-size="16"><text x="254" y="518" fill="#65717E">Tiền hàng</text><text x="560" y="518" fill="#17212B" font-weight="700">24.000.000</text><text x="254" y="560" fill="#65717E">Thuế GTGT</text><text x="560" y="560" fill="#17212B" font-weight="700">2.400.000</text><text x="254" y="610" fill="#17212B" font-weight="800">Tổng thanh toán</text><text x="524" y="610" fill="#0B9444" font-size="22" font-weight="800">26.400.000</text></g><rect x="254" y="648" width="180" height="42" rx="21" fill="#EAF8F0"/><text x="277" y="675" font-family="Segoe UI,Arial" font-size="14" font-weight="800" fill="#0B9444">DỮ LIỆU ĐÃ ĐỌC</text></g><g filter="url(#s)"><rect x="735" y="170" width="280" height="450" rx="30" fill="#10202A"/><circle cx="875" cy="263" r="70" fill="url(#g)"/><path d="M839 264l25 25 50-58" stroke="white" stroke-width="10" stroke-linecap="round" stroke-linejoin="round"/><text x="790" y="376" font-family="Segoe UI,Arial" font-size="15" font-weight="700" fill="#9CB0BC">AI PHÂN TÍCH</text><text x="790" y="420" font-family="Segoe UI,Arial" font-size="27" font-weight="800" fill="white">Nhận diện dữ liệu</text><text x="790" y="455" font-family="Segoe UI,Arial" font-size="27" font-weight="800" fill="white">Gợi ý nghiệp vụ</text><rect x="790" y="505" width="170" height="48" rx="14" fill="#0B9444"/><text x="825" y="536" font-family="Segoe UI,Arial" font-size="16" font-weight="800" fill="white">KẾ TOÁN DUYỆT</text></g><path d="M681 365C708 351 728 344 751 348" stroke="url(#g)" stroke-width="6" stroke-linecap="round"/><path d="M731 330l25 18-29 10" fill="#00A884"/></svg>